<!-- icons/16.svg -->
<svg width="16" height="16" viewBox="0 0 640 512" xmlns="http://www.w3.org/2000/svg">
  <!-- 1. Refresh loops in the background -->
  <path d="M579.8 267.7c56.5-56.5 56.5-148 0-204.5c-50-50-128.8-56.5-186.3-15.4l-1.6 1.1c-14.4 10.3-17.7 30.3-7.4 44.6s30.3 17.7 44.6 7.4l1.6-1.1c32.1-22.9 76-19.3 103.8 8.6c31.5 31.5 31.5 82.5 0 114L422.3 334.8c-31.5 31.5-82.5 31.5-114 0c-27.9-27.9-31.5-71.8-8.6-103.8l1.1-1.6c10.3-14.4 6.9-34.4-7.4-44.6s-34.4-6.9-44.6 7.4l-1.1 1.6C206.5 251.2 213 330 263 380c56.5 56.5 148 56.5 204.5 0L579.8 267.7z" fill="currentColor"/>
  <!-- 2. Bookmark in front, shifted right to center -->
  <g transform="translate(128 0)">
    <path d="M192 0c-41.8 0-77.4 26.7-90.5 64L64 64C28.7 64 0 92.7 0 128v320c0 35.3 28.7 64 64 64h256c35.3 0 64-28.7 64-64V128c0-35.3-28.7-64-64-64H269.5C233.8 26.7 198.2 0 156.4 0z" fill="currentColor"/>
    <circle cx="192" cy="96" r="32" fill="#fff"/>
    <rect x="112" y="192" width="160" height="32" rx="16" ry="16" fill="#fff"/>
  </g>
  <!-- 3. Mortarboard “hat” on top -->
  <g fill="currentColor">
    <polygon points="320,48 512,128 320,208 128,128"/>
    <rect x="314" y="208" width="12" height="48"/>
  </g>
</svg>
